<svg width="30" height="30" viewBox="0 0 30 30" fill="none" xmlns="http://www.w3.org/2000/svg">
<path d="M11.311 9.81876C11.311 11.5058 12.2243 12.8804 14.1214 12.7554C14.2619 12.7554 14.543 12.8179 14.6133 12.9429L16.159 16.4418C16.159 16.3793 17.9155 10.5687 17.775 10.9434C17.775 10.8809 17.8452 10.8184 17.8452 10.8184C19.6017 9.25633 21.0069 6.63208 21.0069 4.44518C21.0069 1.75849 18.9693 0.696347 16.2995 2.07095C13.5595 3.50805 11.3111 6.94442 11.3111 9.81887L11.311 9.81876ZM18.6177 6.00743C18.6177 7.31952 17.5639 8.88163 16.2993 9.5688C14.8942 10.256 13.6998 9.6313 13.6998 8.25671C13.6998 6.94462 14.6833 5.38251 16.0182 4.69533C17.3531 4.00791 18.6177 4.57035 18.6177 6.00743Z" fill="black"/>
<path d="M19.3911 10.2562L26.1358 13.7551L29.9296 11.8183L21.1475 7.31982C20.8667 8.13201 20.164 9.31909 19.3913 10.2562H19.3911Z" fill="black"/>
<path d="M9.8358 11.0057L10.9599 11.5681C10.6788 11.0057 10.6085 10.381 10.6085 9.75605C10.6085 6.6944 12.9972 3.00832 16.0183 1.44633C16.721 1.07137 17.4937 0.883898 17.9857 0.821412L16.8616 0.258979C16.0186 -0.17847 14.824 -0.0534868 13.4891 0.571444C10.3977 2.2585 8.43066 5.69487 8.43066 8.31937C8.50093 9.38151 8.78202 10.5062 9.8358 11.0061L9.8358 11.0057Z" fill="black"/>
<path d="M29.9999 16.4412L26.2061 14.4419L15.5972 19.9403L19.3913 21.8771L29.9999 16.4412Z" fill="black"/>
<path d="M18.9699 10.7559C18.8997 10.8184 18.478 11.1933 18.478 11.2558C18.478 11.3183 16.5107 17.6916 16.581 17.629C16.5107 17.8165 16.2296 17.9415 16.0188 17.8165L15.2461 17.379V19.3783L25.5036 14.0674C24.8714 13.8177 19.6721 11.131 18.9697 10.7561L18.9699 10.7559Z" fill="black"/>
<path d="M13.9812 13.4423C13.4893 13.4423 12.8572 13.3174 12.4355 13.1924L13.6299 15.8791L15.4567 16.8162L13.9812 13.4423Z" fill="black"/>
<path d="M12.9978 16.1909L11.4521 12.6295L9.48473 11.6299C9.34419 11.6924 4.28577 14.5041 4.63684 14.3166C5.62034 14.8165 0.983512 12.4421 14.4732 19.3775V17.0033L13.1383 16.3161C13.0683 16.3159 13.0683 16.2534 12.998 16.1909L12.9978 16.1909Z" fill="black"/>
<path d="M11.733 24.5643C1.75652 19.4408 4.91807 21.0654 4.21509 20.6904V24.7517L14.4726 30.0002V21.128L12.2245 24.4394C12.1542 24.5644 11.8731 24.6269 11.7326 24.5644L11.733 24.5643Z" fill="black"/>
<path d="M19.2513 22.5643L15.2466 20.5026V29.9998C17.4947 28.8126 23.6075 25.6885 25.8555 24.5014V19.3154L19.6024 22.5018C19.4616 22.6271 19.3213 22.6271 19.2511 22.5646L19.2513 22.5643Z" fill="black"/>
<path d="M8.85257 11.1937C7.86908 10.3191 7.65823 8.94448 7.72851 7.69482L0 11.9436L3.79383 13.9429L8.85257 11.1937Z" fill="black"/>
<path d="M14.3327 20.0658C13.2789 19.5033 18.1265 22.0025 4.00478 14.7549L1.47559 18.5037L11.8035 23.8146L14.3327 20.0658Z" fill="black"/>
</svg>
